# xmcd
#
# Track frame offsets: 
#        150
#        13357
#        27587
#        44757
#        57190
#        70775
#        84152
#        96550
#        110430
#        124115
#        139930
#        151967
#        164902
#        177197
#        188967
#        200132
#        213255
#        224482
#        238307
#        249887
#        262257
#        276212
#
# Disc length: 3827 seconds
#
# Revision: 1
# Processed by: cddbd v1.5.2PL0 Copyright (c) Steve Scherf et al.
# Submitted via: ExactAudioCopy v0.99pb4
#
DISCID=5f0ef116
DTITLE=Charlie Parker - The Complete Savoy and Dial Master Takes [CD3
DTITLE=)
DYEAR=2002
DGENRE=Jazz
TTITLE0=Scrapple from the Apple
TTITLE1=My Old Flame
TTITLE2=Out of Nowhere
TTITLE3=Don't Blame Me
TTITLE4=Driftin on a Reed
TTITLE5=Quasimado
TTITLE6=Charlie's Wig
TTITLE7=Bongo Beep
TTITLE8=Crazeology
TTITLE9=How Deep is the Ocean?
TTITLE10=Another Hair Do
TTITLE11=Bluebird
TTITLE12=Klaunstance
TTITLE13=Bird Gets the Worm
TTITLE14=Barbados
TTITLE15=Au-Leu-Cha
TTITLE16=Constellation
TTITLE17=Parker's Mood
TTITLE18=Perhaps
TTITLE19=Marmaduke
TTITLE20=Steeplechase
TTITLE21=Merry Go Round
EXTD=YEAR: 2002
EXTT0=
EXTT1=
EXTT2=
EXTT3=
EXTT4=
EXTT5=
EXTT6=
EXTT7=
EXTT8=
EXTT9=
EXTT10=
EXTT11=
EXTT12=
EXTT13=
EXTT14=
EXTT15=
EXTT16=
EXTT17=
EXTT18=
EXTT19=
EXTT20=
EXTT21=
PLAYORDER=
